<svg id="Layer_1" data-name="Layer 1" xmlns="http://www.w3.org/2000/svg" viewBox="0 0 500 500"><defs><style>.cls-1{fill:#ffc9a4;}.cls-2{fill:#efefef;}.cls-3{fill:#ffb583;}.cls-4{fill:#d3d3d3;}.cls-5{fill:#ffd72e;}.cls-6{fill:#f7b000;}.cls-7{fill:none;stroke:#000;stroke-linecap:round;stroke-linejoin:round;stroke-width:15px;}</style></defs><title>angle</title><circle class="cls-1" cx="250" cy="141.61" r="63.45"/><path class="cls-2" d="M295.35,186a63.39,63.39,0,0,1-90.7,0c-91.25,117.13-82.56,256.55-82.56,256.55,26.6,48.7,127.91,48.7,127.91,48.7s101.31,0,127.91-48.7C377.91,442.51,386.6,303.09,295.35,186Z"/><path class="cls-3" d="M250,78.16A63.86,63.86,0,0,0,234.82,80a63.45,63.45,0,0,1,0,123.22A63.45,63.45,0,1,0,250,78.16Z"/><path class="cls-4" d="M295.35,186a63.51,63.51,0,0,1-20.22,13.91c60.66,89.05,71,214.16,72.45,270.33,12.86-6.8,23.83-15.79,30.33-27.69C377.91,442.51,386.6,303.09,295.35,186Z"/><path class="cls-5" d="M431.09,192.92c-46.09-99.86-135.74-7-135.74-7h0c28.51,36.59,47.26,75.36,59.57,111.37,33.24,16.85,40,73,67.56,81.77C454.55,389.27,473.33,284.44,431.09,192.92Z"/><path class="cls-6" d="M320.77,165.26A169.4,169.4,0,0,0,295.35,186c28.51,36.59,47.26,75.36,59.57,111.37,22.87,11.59,33.19,41.79,46.38,62.36C390.39,303.2,367.66,232.27,320.77,165.26Z"/><path class="cls-5" d="M145.08,297.33c12.31-36,31.06-74.78,59.57-111.37,0,0-89.65-92.9-135.74,7C26.67,284.44,45.45,389.27,77.52,379.1,105.11,370.35,111.84,314.18,145.08,297.33Z"/><path class="cls-6" d="M179.23,165.26c-46.89,67-69.62,137.94-80.53,194.43,13.19-20.57,23.51-50.77,46.38-62.36,12.31-36,31.06-74.78,59.57-111.37A169.4,169.4,0,0,0,179.23,165.26Z"/><circle class="cls-7" cx="250" cy="141.61" r="63.45"/><ellipse class="cls-7" cx="250" cy="27.88" rx="66.41" ry="19.09"/><circle cx="228.96" cy="141.61" r="11.92"/><circle cx="271.04" cy="141.61" r="11.92"/><circle cx="250" cy="258.16" r="11.92"/><circle cx="250" cy="301.83" r="11.92"/><circle cx="250" cy="345.51" r="11.92"/><path class="cls-7" d="M295.35,186a63.39,63.39,0,0,1-90.7,0c-91.25,117.13-82.56,256.55-82.56,256.55,26.6,48.7,127.91,48.7,127.91,48.7s101.31,0,127.91-48.7C377.91,442.51,386.6,303.09,295.35,186Z"/><path class="cls-7" d="M431.09,192.92c-46.09-99.86-135.74-7-135.74-7h0c28.51,36.59,47.26,75.36,59.57,111.37,33.24,16.85,40,73,67.56,81.77C454.55,389.27,473.33,284.44,431.09,192.92Z"/><path class="cls-7" d="M145.08,297.33c12.31-36,31.06-74.78,59.57-111.37,0,0-89.65-92.9-135.74,7C26.67,284.44,45.45,389.27,77.52,379.1,105.11,370.35,111.84,314.18,145.08,297.33Z"/></svg>